<svg width="32" height="32" viewBox="0 0 32 32" fill="none" xmlns="http://www.w3.org/2000/svg">
<g id="appetizer" clip-path="url(#clip0_26_979)">
<path id="Vector" d="M12.0598 4C5.40991 4 0 9.40991 0 16.0598C0 22.7095 5.40991 28.1196 12.0598 28.1196C18.7095 28.1196 24.1196 22.7095 24.1196 16.0598C24.1196 9.40991 18.7097 4 12.0598 4Z" fill="#FF7C48"/>
<path id="Vector_2" d="M24.1196 16.0598C24.1196 22.7097 18.7097 28.1196 12.0598 28.1196V4C18.7097 4 24.1196 9.40967 24.1196 16.0598Z" fill="#FF4C04"/>
<path id="Vector_3" d="M22.1426 16.0598C22.1426 21.6191 17.6191 26.1426 12.0598 26.1426C6.50049 26.1426 1.97705 21.6191 1.97705 16.0598C1.97705 10.5005 6.50049 5.97705 12.0598 5.97705C17.6191 5.97705 22.1426 10.5005 22.1426 16.0598Z" fill="#FFB99D"/>
<path id="Vector_4" d="M22.1426 16.0598C22.1426 21.6191 17.6191 26.1426 12.0598 26.1426V5.97705C17.6191 5.97705 22.1426 10.5005 22.1426 16.0598Z" fill="#FFA17B"/>
<path id="Vector_5" d="M12.0598 7.58594C7.38721 7.58594 3.58594 11.3872 3.58594 16.0598C3.58594 20.7324 7.38721 24.5337 12.0598 24.5337C16.7324 24.5337 20.5337 20.7324 20.5337 16.0598C20.5337 11.3872 16.7324 7.58594 12.0598 7.58594Z" fill="#FFEB99"/>
<path id="Vector_6" d="M20.5339 16.0598C20.5339 20.7322 16.7322 24.5339 12.0598 24.5339V7.58569C16.7322 7.58569 20.5339 11.3875 20.5339 16.0598Z" fill="#FFE477"/>
<path id="Vector_7" d="M14.1641 14.3228L15.3794 13.1074C15.7654 12.7214 15.7654 12.0955 15.3794 11.7095C14.9934 11.3235 14.3674 11.3235 13.9814 11.7095L12.7661 12.9248C12.3801 13.3108 12.3801 13.9368 12.7661 14.3228C13.1521 14.7087 13.7781 14.7087 14.1641 14.3228Z" fill="#49A520"/>
<path id="Vector_8" d="M14.9387 17.7358L13.7236 18.9509C13.3376 19.3372 13.3376 19.9629 13.7236 20.3491C14.1096 20.7351 14.7356 20.7351 15.1216 20.3491L16.3367 19.1338C16.7229 18.7478 16.7229 18.1218 16.3367 17.7358C15.9507 17.3499 15.3247 17.3499 14.9387 17.7358Z" fill="#49A520"/>
<path id="Vector_9" d="M8.20264 12.4587C7.81665 12.0728 7.19067 12.0728 6.80469 12.4587C6.4187 12.8447 6.4187 13.4707 6.80469 13.8567L7.81738 14.8694C8.20337 15.2554 8.82935 15.2556 9.21533 14.8694C9.60132 14.4834 9.60132 13.8577 9.21533 13.4714L8.20264 12.4587Z" fill="#FF4C04"/>
<path id="Vector_10" d="M8.26221 17.6592C8.26221 18.2964 7.74561 18.813 7.1084 18.813C6.47095 18.813 5.95435 18.2964 5.95435 17.6592C5.95435 17.022 6.47095 16.5054 7.1084 16.5054C7.74561 16.5054 8.26221 17.022 8.26221 17.6592Z" fill="#56C225"/>
<path id="Vector_11" d="M17.9456 15.5542C17.9456 16.1917 17.429 16.708 16.7917 16.708C16.1543 16.708 15.6377 16.1917 15.6377 15.5542C15.6377 14.917 16.1543 14.4004 16.7917 14.4004C17.429 14.4004 17.9456 14.917 17.9456 15.5542Z" fill="#D03B00"/>
<path id="Vector_12" d="M11.7954 11.4143C11.7954 12.0515 11.2788 12.5681 10.6416 12.5681C10.0044 12.5681 9.48779 12.0515 9.48779 11.4143C9.48779 10.7771 10.0044 10.2605 10.6416 10.2605C11.2788 10.2605 11.7954 10.7771 11.7954 11.4143Z" fill="#FF4C04"/>
<path id="Vector_13" d="M13.2136 16.4116C13.2136 17.0491 12.697 17.5657 12.0598 17.5657C11.4224 17.5657 10.9058 17.0491 10.9058 16.4116C10.9058 15.7744 11.4224 15.2578 12.0598 15.2578C12.697 15.2578 13.2136 15.7744 13.2136 16.4116Z" fill="#56C225"/>
<path id="Vector_14" d="M13.2136 16.4116C13.2136 17.0488 12.697 17.5657 12.0598 17.5657V15.2578C12.697 15.2578 13.2136 15.7744 13.2136 16.4116Z" fill="#49A520"/>
<path id="Vector_15" d="M11.6375 20.4714C11.6375 21.1089 11.1208 21.6255 10.4836 21.6255C9.84644 21.6255 9.32983 21.1089 9.32983 20.4714C9.32983 19.8342 9.84644 19.3176 10.4836 19.3176C11.1208 19.3176 11.6375 19.8342 11.6375 20.4714Z" fill="#FF4C04"/>
<path id="Vector_16" d="M28.5627 9.9519C27.9766 9.9519 27.5015 10.427 27.5015 11.0132V23.8862C27.5015 24.4724 27.9766 24.9475 28.5625 24.9475C29.1487 24.9475 29.6238 24.4724 29.6238 23.8862V11.0132C29.6238 10.427 29.1487 9.9519 28.5627 9.9519Z" fill="#FF8859"/>
<path id="Vector_17" d="M29.624 11.0127V23.8865C29.624 24.4722 29.1487 24.9478 28.5627 24.9478V9.95166C29.1487 9.95166 29.624 10.427 29.624 11.0127Z" fill="#FF7037"/>
<path id="Vector_18" d="M32 11.4844C32 13.8665 30.4768 15.7974 28.5969 15.7974C28.5854 15.7974 28.5745 15.7974 28.5627 15.7966C26.699 15.7742 25.1938 13.8523 25.1938 11.4844C25.1938 9.1167 26.699 7.19482 28.5627 7.17212C28.5745 7.17163 28.5854 7.17163 28.5969 7.17163C30.4768 7.17163 32 9.10254 32 11.4844Z" fill="#FFB99D"/>
<path id="Vector_19" d="M32 11.4844C32 13.8665 30.4768 15.7974 28.5969 15.7974C28.5854 15.7974 28.5745 15.7974 28.5627 15.7966V7.17212C28.5745 7.17163 28.5854 7.17163 28.5969 7.17163C30.4768 7.17163 32 9.10254 32 11.4844Z" fill="#FFA17B"/>
</g>
<defs>
<clipPath id="clip0_26_979">
<rect width="32" height="32" fill="white"/>
</clipPath>
</defs>
</svg>
