<svg width="20" height="21" viewBox="0 0 20 21" fill="none" xmlns="http://www.w3.org/2000/svg">
<g id="arrow" clip-path="url(#clip0_445_1052)">
<path id="Vector" d="M0.415375 15.8865C0.548162 16.0281 0.706146 16.1404 0.880211 16.2171C1.05428 16.2938 1.24098 16.3333 1.42954 16.3333C1.61811 16.3333 1.80481 16.2938 1.97888 16.2171C2.15294 16.1404 2.31092 16.0281 2.44371 15.8865L8.98583 8.96953C9.11862 8.82797 9.2766 8.71562 9.45067 8.63895C9.62473 8.56227 9.81143 8.5228 10 8.5228C10.1886 8.5228 10.3753 8.56227 10.5493 8.63895C10.7234 8.71562 10.8814 8.82797 11.0142 8.96953L17.5563 15.8865C17.6891 16.0281 17.8471 16.1404 18.0211 16.2171C18.1952 16.2938 18.3819 16.3333 18.5705 16.3333C18.759 16.3333 18.9457 16.2938 19.1198 16.2171C19.2939 16.1404 19.4518 16.0281 19.5846 15.8865C19.8507 15.6036 20 15.2208 20 14.8218C20 14.4228 19.8507 14.04 19.5846 13.7571L13.0282 6.82496C12.2247 5.97649 11.1356 5.49992 10 5.49992C8.86441 5.49992 7.77526 5.97649 6.97177 6.82496L0.415375 13.7571C0.149332 14.04 1.67017e-07 14.4228 1.32137e-07 14.8218C9.72558e-08 15.2208 0.149332 15.6036 0.415375 15.8865Z" fill="white"/>
</g>
<defs>
<clipPath id="clip0_445_1052">
<rect width="20" height="20" fill="white" transform="translate(20 20.5) rotate(-180)"/>
</clipPath>
</defs>
</svg>
