<svg width="32" height="32" viewBox="0 0 32 32" fill="none" xmlns="http://www.w3.org/2000/svg">
<g id="cake" clip-path="url(#clip0_26_977)">
<path id="Vector" d="M28.4874 17.0874C28.4125 17.1625 28.3563 17.2375 28.3 17.3312C28.0001 17.8562 27.4374 18.1937 26.8 18.1937C25.8438 18.1937 25.0562 17.4063 25.0562 16.4312C25.0562 15.9063 24.6437 15.4937 24.1187 15.4937C23.5937 15.4937 23.1812 15.9063 23.1812 16.4312C23.1812 17.4063 22.3937 18.1937 21.4188 18.1937C20.4437 18.1937 19.6562 17.4063 19.6562 16.4312C19.6562 15.9063 19.2437 15.4937 18.7188 15.4937C18.1937 15.4937 17.7812 15.9063 17.7812 16.4312C17.7812 17.4063 16.9938 18.1937 16.0187 18.1937H16C15.0437 18.175 14.2751 17.4063 14.2751 16.4312C14.2751 15.9063 13.8625 15.4937 13.3376 15.4937C12.8125 15.4937 12.4001 15.9063 12.4001 16.4312C12.4001 17.4063 11.6125 18.1937 10.6376 18.1937C9.6625 18.1937 8.87506 17.4063 8.87506 16.4312C8.87506 15.9063 8.4625 15.4937 7.93756 15.4937C7.4125 15.4937 7.00006 15.9063 7.00006 16.4312C7.00006 17.4063 6.21263 18.1937 5.23756 18.1937C4.6 18.1937 4 17.8375 3.71881 17.275C3.70006 17.2187 3.6625 17.1625 3.62506 17.1249L1.9375 17.9124V22.5625L4.13119 24.4375H27.3062L30.0625 22.5625V18.0249L28.4874 17.0874Z" fill="#994C0F"/>
<path id="Vector_2" d="M27.3063 24.4375H16V18.1937H16.0187C16.9938 18.1937 17.7812 17.4062 17.7812 16.4312C17.7812 15.9062 18.1937 15.4937 18.7188 15.4937C19.2437 15.4937 19.6562 15.9062 19.6562 16.4312C19.6562 17.4062 20.4437 18.1937 21.4188 18.1937C22.3937 18.1937 23.1812 17.4062 23.1812 16.4312C23.1812 15.9062 23.5937 15.4937 24.1187 15.4937C24.6437 15.4937 25.0562 15.9062 25.0562 16.4312C25.0562 17.4062 25.8437 18.1937 26.8 18.1937C27.4374 18.1937 28 17.8562 28.3 17.3311C28.3563 17.2374 28.4125 17.1624 28.4874 17.0874L30.0625 18.0249V22.5625L27.3063 24.4375Z" fill="#713708"/>
<path id="Vector_3" d="M1.9375 12.25V17.9124L2.03125 18.1C2.63125 19.3 3.8875 20.0688 5.23756 20.0688C6.30631 20.0688 7.26262 19.6 7.93756 18.8687C8.61256 19.6 9.56881 20.0688 10.6376 20.0688C11.7063 20.0688 12.6625 19.6 13.3376 18.8687C13.9937 19.6 14.9312 20.0688 16 20.0688H16.0187C17.0875 20.0688 18.0438 19.6 18.7188 18.8687C19.3937 19.6 20.35 20.0688 21.4188 20.0688C22.4875 20.0688 23.4437 19.6 24.1187 18.8687C24.7749 19.6 25.7312 20.0688 26.8 20.0688C28.1125 20.0688 29.3124 19.375 29.95 18.2313L30.0625 18.025V12.25H1.9375Z" fill="#FEA832"/>
<path id="Vector_4" d="M30.0625 12.25V18.0249L29.95 18.2313C29.3124 19.375 28.1126 20.0687 26.8 20.0687C25.7312 20.0687 24.7749 19.5999 24.1187 18.8687C23.4437 19.5999 22.4875 20.0687 21.4188 20.0687C20.35 20.0687 19.3937 19.5999 18.7188 18.8687C18.0438 19.5999 17.0875 20.0687 16.0187 20.0687H16V12.25H30.0625Z" fill="#FE9923"/>
<path id="Vector_5" d="M30.0062 11.9125C28.4688 7.86244 26.0688 5.03119 21.8875 3.84994C21.6813 3.79375 21.4749 3.79375 21.2687 3.8875L15.9999 5.9875L2.51869 11.3875C2.10625 11.5376 1.8625 11.9875 1.95619 12.4187C2.03125 12.8687 2.425 13.1875 2.875 13.1875H29.125C29.7812 13.1875 30.2313 12.5312 30.0062 11.9125Z" fill="#FEDB41"/>
<path id="Vector_6" d="M29.125 13.1875H16V5.98744L21.2687 3.88744C21.475 3.79369 21.6813 3.79369 21.8876 3.84988C26.0687 5.03113 28.4688 7.86238 30.0063 11.9124C30.2313 12.5312 29.7812 13.1875 29.125 13.1875Z" fill="#FCBF29"/>
<path id="Vector_7" d="M1.9375 22.5625V27.25C1.9375 27.7749 2.34994 28.1875 2.875 28.1875H29.125C29.6501 28.1875 30.0625 27.7749 30.0625 27.25V22.5625H1.9375Z" fill="#FF4C5B"/>
<path id="Vector_8" d="M16 22.5625H30.0625V27.25C30.0625 27.7749 29.6501 28.1875 29.125 28.1875H16V22.5625Z" fill="#FC1939"/>
<path id="Vector_9" d="M1 27.3125C1 29.9 3.1 32 5.6875 32H26.3125C28.9 32 31 29.9 31 27.3125H1Z" fill="#1BD9DE"/>
<path id="Vector_10" d="M32 27.25C32 27.7749 31.5251 28.1875 31 28.1875H1C0.474937 28.1875 0 27.7749 0 27.25C0 26.7249 0.474937 26.3125 1 26.3125H31C31.5251 26.3125 32 26.7249 32 27.25Z" fill="#1DE8F1"/>
<path id="Vector_11" d="M31 27.3125C31 29.9 28.9 32 26.3125 32H16V27.3125H31Z" fill="#14B7BF"/>
<path id="Vector_12" d="M32 27.25C32 27.7749 31.5251 28.1875 31 28.1875H16V26.3125H31C31.5251 26.3125 32 26.7249 32 27.25Z" fill="#1BD9DE"/>
<path id="Vector_13" d="M16.9375 1.9375C16.6188 1.9375 16.2999 1.97494 16 2.06875C14.3875 2.48119 13.1875 3.94375 13.1875 5.6875C13.1875 7.43125 14.3875 8.89369 16 9.30625C16.2999 9.4 16.6188 9.4375 16.9375 9.4375C18.9999 9.4375 20.6875 7.74994 20.6875 5.6875C20.6875 3.62494 18.9999 1.9375 16.9375 1.9375Z" fill="#FF4C5B"/>
<path id="Vector_14" d="M17.3499 3.65625C16.8812 3.88125 16.3375 3.69369 16.0937 3.22494L15.1562 1.34994C14.9312 0.899938 15.1188 0.3375 15.5876 0.09375C15.7187 0.0374375 15.8499 0 16 0C16.3375 0 16.675 0.187438 16.8437 0.524938L17.7812 2.39994C18.0062 2.84994 17.8187 3.4125 17.3499 3.65625Z" fill="#994C0F"/>
</g>
<defs>
<clipPath id="clip0_26_977">
<rect width="32" height="32" fill="white"/>
</clipPath>
</defs>
</svg>
