<svg width="20" height="21" viewBox="0 0 20 21" fill="none" xmlns="http://www.w3.org/2000/svg">
<g id="check " clip-path="url(#clip0_28_2394)">
<path id="Vector" d="M18.5993 4.19251L7.08343 15.7075C7.00601 15.7852 6.914 15.8469 6.81268 15.889C6.71136 15.9311 6.60273 15.9527 6.49302 15.9527C6.38331 15.9527 6.27467 15.9311 6.17336 15.889C6.07204 15.8469 5.98003 15.7852 5.9026 15.7075L1.44927 11.25C1.37184 11.1723 1.27983 11.1106 1.17851 11.0685C1.07719 11.0264 0.968563 11.0048 0.858851 11.0048C0.74914 11.0048 0.640508 11.0264 0.539189 11.0685C0.43787 11.1106 0.345859 11.1723 0.268434 11.25C0.190704 11.3274 0.129027 11.4194 0.0869419 11.5208C0.0448572 11.6221 0.0231934 11.7307 0.0231934 11.8404C0.0231934 11.9501 0.0448572 12.0588 0.0869419 12.1601C0.129027 12.2614 0.190704 12.3534 0.268434 12.4308L4.72343 16.885C5.19339 17.3541 5.83027 17.6175 6.49427 17.6175C7.15827 17.6175 7.79514 17.3541 8.2651 16.885L19.7801 5.37251C19.8577 5.2951 19.9193 5.20314 19.9613 5.1019C20.0033 5.00065 20.0249 4.89212 20.0249 4.78251C20.0249 4.67289 20.0033 4.56436 19.9613 4.46312C19.9193 4.36188 19.8577 4.26992 19.7801 4.19251C19.7027 4.11478 19.6107 4.0531 19.5093 4.01101C19.408 3.96893 19.2994 3.94727 19.1897 3.94727C19.08 3.94727 18.9713 3.96893 18.87 4.01101C18.7687 4.0531 18.6767 4.11478 18.5993 4.19251Z" fill="white"/>
</g>
<defs>
<clipPath id="clip0_28_2394">
<rect width="20" height="20" fill="white" transform="translate(0 0.5)"/>
</clipPath>
</defs>
</svg>
