<svg width="40" height="40" viewBox="0 0 40 40" fill="none" xmlns="http://www.w3.org/2000/svg">
<g id="close" clip-path="url(#clip0_445_540)">
<path id="Vector" d="M26.1783 16.1783L22.3567 20L26.1783 23.8217C26.83 24.4733 26.83 25.5267 26.1783 26.1783C25.8533 26.5033 25.4267 26.6667 25 26.6667C24.5733 26.6667 24.1467 26.5033 23.8217 26.1783L20 22.3567L16.1783 26.1783C15.8533 26.5033 15.4267 26.6667 15 26.6667C14.5733 26.6667 14.1467 26.5033 13.8217 26.1783C13.17 25.5267 13.17 24.4733 13.8217 23.8217L17.6433 20L13.8217 16.1783C13.17 15.5267 13.17 14.4733 13.8217 13.8217C14.4733 13.17 15.5267 13.17 16.1783 13.8217L20 17.6433L23.8217 13.8217C24.4733 13.17 25.5267 13.17 26.1783 13.8217C26.83 14.4733 26.83 15.5267 26.1783 16.1783ZM40 20C40 31.0283 31.0283 40 20 40C8.97167 40 0 31.0283 0 20C0 8.97167 8.97167 0 20 0C31.0283 0 40 8.97167 40 20ZM36.6667 20C36.6667 10.81 29.19 3.33333 20 3.33333C10.81 3.33333 3.33333 10.81 3.33333 20C3.33333 29.19 10.81 36.6667 20 36.6667C29.19 36.6667 36.6667 29.19 36.6667 20Z" fill="#FF7CA3"/>
</g>
<defs>
<clipPath id="clip0_445_540">
<rect width="40" height="40" fill="white"/>
</clipPath>
</defs>
</svg>
