<svg width="241" height="40" viewBox="0 0 241 40" fill="none" xmlns="http://www.w3.org/2000/svg">
<g id="codlop1" clip-path="url(#clip0_45_8360)">
<g id="Vector">
<path d="M105.753 30.5515H95.5686C93.8219 30.5515 92.3061 30.1966 91.0213 29.4869C89.2884 28.556 87.8144 27.0022 86.7854 25.0217C85.7564 23.0413 85.2185 20.723 85.2397 18.3596C85.2285 16.6445 85.5126 14.9466 86.0727 13.3818C86.617 11.8661 87.4003 10.5041 88.3754 9.37778C89.2634 8.34792 90.3035 7.54567 91.437 7.01616C92.6187 6.4505 93.9954 6.16768 95.567 6.16768H105.751V12.6323H95.567C94.823 12.6031 94.0812 12.7498 93.3804 13.0646C92.8302 13.3343 92.3231 13.7257 91.8834 14.2202C91.4392 14.7534 91.0823 15.3902 90.8328 16.0949C90.5892 16.7891 90.4575 17.5369 90.4454 18.2951C90.4332 19.0534 90.5408 19.8072 90.7619 20.5131C90.9664 21.1627 91.269 21.7567 91.653 22.2626C92.0955 22.8579 92.6352 23.3265 93.2354 23.6363C93.9781 23.9973 94.7708 24.169 95.567 24.1414H105.751L105.753 30.5515Z" fill="url(#paint0_linear_45_8360)"/>
<path d="M117.406 30.5515C115.66 30.5515 114.145 30.1966 112.86 29.4869C111.128 28.5552 109.654 27.0013 108.625 25.021C107.596 23.0408 107.057 20.723 107.077 18.3596C107.066 16.6444 107.351 14.9464 107.912 13.3818C108.455 11.8656 109.239 10.5034 110.215 9.37778C111.102 8.3475 112.142 7.5452 113.276 7.01616C114.458 6.4505 115.834 6.16768 117.405 6.16768H121.491C123.063 6.16768 124.439 6.4505 125.619 7.01616C126.753 7.5452 127.793 8.3475 128.681 9.37778C129.656 10.5041 130.439 11.8661 130.984 13.3818C131.544 14.9466 131.828 16.6445 131.817 18.3596C131.845 20.7256 131.31 23.0485 130.281 25.0319C129.251 27.0152 127.774 28.569 126.037 29.4949C124.748 30.2034 123.232 30.5582 121.491 30.5596L117.406 30.5515ZM117.406 12.6242C116.662 12.5952 115.92 12.7419 115.219 13.0566C114.67 13.3257 114.163 13.7172 113.724 14.2121C113.28 14.7453 112.923 15.3822 112.674 16.0869C112.414 16.8128 112.281 17.6003 112.285 18.396C112.283 19.1184 112.393 19.8345 112.607 20.505C112.813 21.1547 113.116 21.7487 113.5 22.2545C113.942 22.8497 114.482 23.3177 115.083 23.6263C115.825 23.987 116.617 24.1587 117.413 24.1313H121.499C122.295 24.1587 123.087 23.987 123.829 23.6263C124.429 23.3177 124.969 22.8497 125.412 22.2545C125.796 21.7486 126.098 21.1546 126.303 20.505C126.524 19.7991 126.631 19.0453 126.619 18.2871C126.607 17.5288 126.475 16.7811 126.232 16.0869C125.982 15.3822 125.625 14.7453 125.181 14.2121C124.742 13.7176 124.235 13.3262 123.686 13.0566C122.985 12.742 122.243 12.5954 121.499 12.6242H117.406Z" fill="url(#paint1_linear_45_8360)"/>
<path d="M146.089 6.16767C147.662 6.16767 149.038 6.4505 150.217 7.01615C151.351 7.54589 152.391 8.34812 153.279 9.37777C154.254 10.5035 155.037 11.8656 155.58 13.3818C156.141 14.9464 156.425 16.6444 156.415 18.3596C156.443 20.7257 155.908 23.0487 154.879 25.0321C153.849 27.0155 152.372 28.5692 150.635 29.4949C149.345 30.2033 147.83 30.5582 146.089 30.5596H135.587C134.743 30.5596 134.321 30.0424 134.322 29.0081V7.67676C134.322 6.66666 134.744 6.16161 135.587 6.16161L146.089 6.16767ZM139.903 12.6323C139.655 12.6323 139.529 12.8 139.529 13.1374V23.6424C139.529 23.9778 139.655 24.1475 139.903 24.1475H146.089C146.885 24.1751 147.677 24.0034 148.419 23.6424C149.019 23.3338 149.559 22.8659 150.001 22.2707C150.386 21.7649 150.689 21.1709 150.894 20.5212C151.109 19.8507 151.218 19.1346 151.216 18.4121C151.22 17.6164 151.088 16.8289 150.828 16.103C150.579 15.3984 150.223 14.7616 149.779 14.2283C149.339 13.7337 148.832 13.3423 148.282 13.0727C147.581 12.758 146.839 12.6114 146.095 12.6404L139.903 12.6323Z" fill="url(#paint2_linear_45_8360)"/>
<path d="M176.729 30.5515C175.713 30.5802 174.699 30.4161 173.722 30.0646C172.979 29.7937 172.304 29.284 171.766 28.5858C171.258 27.878 170.897 27.0227 170.717 26.097C170.491 24.9588 170.383 23.789 170.395 22.6162V6.16768H175.632V22.002C175.632 22.8929 175.751 23.499 175.991 23.8202C176.231 24.1414 176.686 24.3071 177.358 24.3071H190.852V30.5475L176.729 30.5515Z" fill="url(#paint3_linear_45_8360)"/>
<path d="M201.962 30.5515C200.215 30.5515 198.7 30.1966 197.416 29.4869C195.683 28.5563 194.209 27.0026 193.179 25.0222C192.15 23.0417 191.612 20.7232 191.633 18.3596C191.622 16.6443 191.906 14.9462 192.468 13.3818C193.011 11.8656 193.794 10.5035 194.769 9.37778C195.657 8.34792 196.697 7.54567 197.83 7.01616C199.012 6.4505 200.389 6.16768 201.96 6.16768H206.045C207.618 6.16768 208.994 6.4505 210.174 7.01616C211.307 7.5459 212.347 8.34813 213.235 9.37778C214.212 10.5031 214.996 11.8653 215.54 13.3818C216.1 14.9464 216.385 16.6444 216.374 18.3596C216.401 20.7255 215.865 23.0479 214.836 25.0309C213.806 27.014 212.329 28.568 210.593 29.4949C209.303 30.2034 207.788 30.5582 206.047 30.5596L201.962 30.5515ZM201.962 12.6242C201.218 12.595 200.476 12.7417 199.775 13.0566C199.225 13.3262 198.718 13.7176 198.278 14.2121C197.834 14.7449 197.478 15.3819 197.229 16.0869C196.969 16.8128 196.837 17.6003 196.841 18.396C196.839 19.1184 196.949 19.8345 197.163 20.505C197.368 21.1546 197.67 21.7486 198.054 22.2545C198.497 22.8491 199.037 23.317 199.637 23.6263C200.38 23.9872 201.172 24.1589 201.968 24.1313H206.053C206.849 24.1587 207.641 23.987 208.383 23.6263C208.984 23.3177 209.524 22.8497 209.966 22.2545C210.35 21.7487 210.653 21.1547 210.858 20.505C211.072 19.8343 211.182 19.1183 211.181 18.396C211.185 17.6003 211.052 16.8128 210.792 16.0869C210.543 15.3822 210.186 14.7453 209.742 14.2121C209.303 13.7176 208.796 13.3262 208.246 13.0566C207.546 12.7419 206.804 12.5952 206.06 12.6242H201.962Z" fill="url(#paint4_linear_45_8360)"/>
<path d="M233.033 6.16767C234.414 6.16767 235.57 6.40201 236.5 6.8707C237.388 7.30544 238.195 7.96183 238.874 8.79999C239.548 9.64896 240.086 10.6532 240.456 11.7576C240.838 12.8748 241.033 14.0777 241.032 15.2929C241.034 16.3586 240.883 17.416 240.585 18.4141C240.293 19.403 239.87 20.3234 239.335 21.1374C238.647 22.1632 237.784 22.9826 236.81 23.5353C235.794 24.1252 234.537 24.4195 233.041 24.4182H224.08V30.5515H218.872V7.67676C218.872 6.66666 219.294 6.16161 220.138 6.16161L233.033 6.16767ZM233.149 18.4303C233.626 18.4532 234.101 18.3492 234.544 18.1252C234.881 17.9386 235.173 17.6464 235.393 17.2768C235.697 16.7806 235.859 16.1708 235.853 15.5454C235.863 14.8816 235.692 14.2333 235.369 13.7071C235.144 13.3572 234.852 13.0841 234.52 12.9131C234.085 12.7028 233.62 12.6046 233.154 12.6242H224.465C224.215 12.6242 224.091 12.7919 224.091 13.1293V18.4303H233.149Z" fill="url(#paint5_linear_45_8360)"/>
<path d="M27.2733 -3.71389e-06L8.64728 20.0202L4.10156 15.0061L17.7323 0.826258C18.2449 0.292752 18.8901 0.000500979 19.5564 -3.71389e-06H27.2733Z" fill="url(#paint6_linear_45_8360)"/>
<path d="M26.6126 39.2828C26.6647 39.336 26.7022 39.4083 26.7199 39.4895C26.7376 39.5707 26.7347 39.6569 26.7114 39.7359C26.6881 39.8149 26.6458 39.8829 26.5902 39.9302C26.5347 39.9775 26.4687 40.0019 26.4015 40H19.616C18.91 40.0004 18.2261 39.6917 17.6823 39.1272L0.817552 21.5798C0.632621 21.3872 0.483797 21.1459 0.381655 20.873C0.279513 20.6001 0.226562 20.3024 0.226562 20.001C0.226562 19.6996 0.279513 19.4019 0.381655 19.129C0.483797 18.8561 0.632621 18.6148 0.817552 18.4222L4.10156 15.0061L26.6126 39.2828Z" fill="url(#paint7_linear_45_8360)"/>
<path d="M74.7189 21.5798L71.2802 25.1576L66.8844 20.0586L66.9037 20.0384L48.9223 0.717211C48.8701 0.663911 48.8325 0.591453 48.8148 0.510006C48.7971 0.42856 48.8002 0.34222 48.8237 0.263104C48.8472 0.183988 48.8898 0.11607 48.9456 0.068889C49.0015 0.0217082 49.0677 -0.0023663 49.135 4.25794e-05H55.9125C56.6187 -0.000522498 57.3029 0.308963 57.8461 0.874787L74.7141 18.4223C74.8993 18.6144 75.0485 18.8554 75.1511 19.128C75.2536 19.4006 75.3071 19.6982 75.3075 19.9996C75.308 20.301 75.2555 20.5989 75.1538 20.872C75.052 21.1451 74.9036 21.3868 74.7189 21.5798Z" fill="url(#paint8_linear_45_8360)"/>
<path d="M71.2802 25.1576L64.7235 31.9778H55.7497L66.8844 20.0586L71.2802 25.1576Z" fill="url(#paint9_linear_45_8360)"/>
<path d="M48.1053 39.9858L48.0924 40H41.5615C41.2378 40 40.9215 39.8794 40.6526 39.6535C40.3838 39.4276 40.1746 39.1066 40.0516 38.7313L27.3732 -3.71355e-06H33.2999C33.8667 -1.36001e-05 34.4207 0.211246 34.8916 0.606932C35.3624 1.00262 35.7288 1.56486 35.9442 2.22222L45.6334 31.8182L48.1053 39.9858Z" fill="url(#paint10_linear_45_8360)"/>
<path d="M45.685 31.9778H64.68L57.4288 39.5192C57.1285 39.8285 56.7523 39.9983 56.3636 40L48.0924 40L45.685 31.9778Z" fill="url(#paint11_linear_45_8360)"/>
</g>
</g>
<defs>
<linearGradient id="paint0_linear_45_8360" x1="0.233631" y1="20" x2="241.032" y2="20" gradientUnits="userSpaceOnUse">
<stop stop-color="#3597FF"/>
<stop offset="0.58" stop-color="#4C53DE"/>
<stop offset="0.73" stop-color="#4D4EDB"/>
<stop offset="0.9" stop-color="#5140D1"/>
<stop offset="1" stop-color="#5434CA"/>
</linearGradient>
<linearGradient id="paint1_linear_45_8360" x1="0.2161" y1="19.9934" x2="241.037" y2="19.9934" gradientUnits="userSpaceOnUse">
<stop stop-color="#3597FF"/>
<stop offset="0.58" stop-color="#4C53DE"/>
<stop offset="0.73" stop-color="#4D4EDB"/>
<stop offset="0.9" stop-color="#5140D1"/>
<stop offset="1" stop-color="#5434CA"/>
</linearGradient>
<linearGradient id="paint2_linear_45_8360" x1="0.226585" y1="19.9983" x2="241.055" y2="19.9983" gradientUnits="userSpaceOnUse">
<stop stop-color="#3597FF"/>
<stop offset="0.58" stop-color="#4C53DE"/>
<stop offset="0.73" stop-color="#4D4EDB"/>
<stop offset="0.9" stop-color="#5140D1"/>
<stop offset="1" stop-color="#5434CA"/>
</linearGradient>
<linearGradient id="paint3_linear_45_8360" x1="0.294423" y1="19.9973" x2="241.089" y2="19.9973" gradientUnits="userSpaceOnUse">
<stop stop-color="#3597FF"/>
<stop offset="0.58" stop-color="#4C53DE"/>
<stop offset="0.73" stop-color="#4D4EDB"/>
<stop offset="0.9" stop-color="#5140D1"/>
<stop offset="1" stop-color="#5434CA"/>
</linearGradient>
<linearGradient id="paint4_linear_45_8360" x1="0.232348" y1="19.9934" x2="241.038" y2="19.9934" gradientUnits="userSpaceOnUse">
<stop stop-color="#3597FF"/>
<stop offset="0.58" stop-color="#4C53DE"/>
<stop offset="0.73" stop-color="#4D4EDB"/>
<stop offset="0.9" stop-color="#5140D1"/>
<stop offset="1" stop-color="#5434CA"/>
</linearGradient>
<linearGradient id="paint5_linear_45_8360" x1="0.296605" y1="20.0049" x2="241.031" y2="20.0049" gradientUnits="userSpaceOnUse">
<stop stop-color="#3597FF"/>
<stop offset="0.58" stop-color="#4C53DE"/>
<stop offset="0.73" stop-color="#4D4EDB"/>
<stop offset="0.9" stop-color="#5140D1"/>
<stop offset="1" stop-color="#5434CA"/>
</linearGradient>
<linearGradient id="paint6_linear_45_8360" x1="0.226562" y1="20" x2="241.032" y2="20" gradientUnits="userSpaceOnUse">
<stop stop-color="#8127FF"/>
<stop offset="0.43" stop-color="#BD37FF"/>
<stop offset="0.63" stop-color="#CD3AFF"/>
<stop offset="1" stop-color="#F441FF"/>
</linearGradient>
<linearGradient id="paint7_linear_45_8360" x1="0.223036" y1="19.9999" x2="240.978" y2="19.9999" gradientUnits="userSpaceOnUse">
<stop stop-color="#8127FF"/>
<stop offset="0.43" stop-color="#BD37FF"/>
<stop offset="0.63" stop-color="#CD3AFF"/>
<stop offset="1" stop-color="#F441FF"/>
</linearGradient>
<linearGradient id="paint8_linear_45_8360" x1="0.324767" y1="19.9985" x2="241.043" y2="19.9985" gradientUnits="userSpaceOnUse">
<stop stop-color="#3597FF"/>
<stop offset="0.58" stop-color="#4C53DE"/>
<stop offset="0.73" stop-color="#4D4EDB"/>
<stop offset="0.9" stop-color="#5140D1"/>
<stop offset="1" stop-color="#5434CA"/>
</linearGradient>
<linearGradient id="paint9_linear_45_8360" x1="117.156" y1="-120.597" x2="117.451" y2="51.8844" gradientUnits="userSpaceOnUse">
<stop stop-color="#3597FF"/>
<stop offset="0.58" stop-color="#4C53DE"/>
<stop offset="0.73" stop-color="#4D4EDB"/>
<stop offset="0.9" stop-color="#5140D1"/>
<stop offset="1" stop-color="#5434CA"/>
</linearGradient>
<linearGradient id="paint10_linear_45_8360" x1="0.226562" y1="20" x2="241.032" y2="20" gradientUnits="userSpaceOnUse">
<stop stop-color="#6418B0"/>
<stop offset="0.01" stop-color="#661AB3"/>
<stop offset="0.08" stop-color="#792ACF"/>
<stop offset="0.16" stop-color="#8836E4"/>
<stop offset="0.25" stop-color="#933FF3"/>
<stop offset="0.35" stop-color="#9944FC"/>
<stop offset="0.5" stop-color="#9B46FF"/>
<stop offset="1" stop-color="#B880FF"/>
</linearGradient>
<linearGradient id="paint11_linear_45_8360" x1="45.685" y1="35.9879" x2="64.68" y2="35.9879" gradientUnits="userSpaceOnUse">
<stop stop-color="#6418B0"/>
<stop offset="0.01" stop-color="#661AB3"/>
<stop offset="0.08" stop-color="#792ACF"/>
<stop offset="0.16" stop-color="#8836E4"/>
<stop offset="0.25" stop-color="#933FF3"/>
<stop offset="0.35" stop-color="#9944FC"/>
<stop offset="0.5" stop-color="#9B46FF"/>
<stop offset="1" stop-color="#B880FF"/>
</linearGradient>
<clipPath id="clip0_45_8360">
<rect width="240.741" height="40" fill="white" transform="translate(0.258789)"/>
</clipPath>
</defs>
</svg>
