<svg width="48" height="48" viewBox="0 0 48 48" fill="none" xmlns="http://www.w3.org/2000/svg">
<g id="croissant" clip-path="url(#clip0_343_2328)">
<path id="Vector" d="M10.5444 47.8495L16.0881 46.6675C16.3863 46.6079 16.625 46.4885 16.8039 46.2699L46.3054 16.7684C46.7826 16.2911 47.7472 11.1515 47.8465 10.4157C48.4631 7.17404 47.1904 3.87273 44.5652 1.84426C40.2497 -1.43718 34.0647 -0.184303 31.3401 4.36998L27.6112 10.0067L10.0622 27.5559L4.37943 31.343C-0.851068 34.4653 -1.58682 41.9628 3.20606 45.9603C5.25449 47.6506 7.91934 48.3267 10.5444 47.8495Z" fill="#FCBF29"/>
<path id="Vector_2" d="M3.20602 45.9603C-1.58676 41.9628 -0.851106 34.4653 4.37939 31.343L10.0621 27.5559L18.8267 18.7913L31.5547 31.5192L16.804 46.2699C16.6249 46.4886 16.3863 46.608 16.0881 46.6676L10.5445 47.8496C7.9193 48.3267 5.25446 47.6506 3.20602 45.9603Z" fill="#FEDB41"/>
<path id="Vector_3" d="M16.0479 47.1051C17.1021 47.6818 18.2556 48.0001 19.4091 48C20.3636 48 21.3182 47.8011 22.2131 47.3835L28.3725 44.6845C28.5316 44.6448 32.5887 40.6276 36.6059 36.5705C40.6232 32.5532 44.6205 28.4763 44.72 28.2576L47.4389 22.0784C49.2288 17.7826 46.4843 13.0494 42.1488 12.3733L27.293 9.17143C24.9861 8.7338 22.5256 9.52365 20.8749 11.2141L16.0622 16.0269L11.2296 20.8994C9.53915 22.5898 8.76918 25.07 9.22658 27.3571L12.4882 42.0737C12.8263 44.2413 14.1388 46.071 16.0479 47.1051Z" fill="#FE9923"/>
<path id="Vector_4" d="M12.4882 42.0737L9.22658 27.3571C8.76918 25.07 9.53915 22.5897 11.2296 20.8993L16.0622 16.0269L36.6059 36.5706C32.5887 40.6275 28.5316 44.6449 28.3725 44.6845L22.2131 47.3835C21.3182 47.8012 20.3636 48 19.4091 48C18.2556 48.0001 17.1021 47.6818 16.0479 47.1052C14.1388 46.0711 12.8263 44.2415 12.4882 42.0737Z" fill="#FEA832"/>
<path id="Vector_5" d="M37.0839 44.7244L44.7803 37.028C48.022 33.7863 47.3657 28.3968 43.448 26.0303L23.4214 13.9985C20.7167 12.4073 17.3159 12.8251 15.0886 15.0524C13.7761 16.3649 13.0999 18.0753 13.0801 19.8452C13.0999 21.0584 13.3983 22.2715 14.0545 23.3653L26.0864 43.3919C28.4131 47.3099 33.8422 47.9661 37.0839 44.7244Z" fill="#FCBF29"/>
<path id="Vector_6" d="M26.0854 43.392L14.0535 23.3654C13.3972 22.2716 13.0989 21.0585 13.0791 19.8453C13.0989 18.0754 13.7751 16.365 15.0876 15.0525L40.9213 40.8861L37.083 44.7244C33.8414 47.9661 28.4122 47.3099 26.0854 43.392Z" fill="#FEDB41"/>
</g>
<defs>
<clipPath id="clip0_343_2328">
<rect width="48" height="48" fill="white"/>
</clipPath>
</defs>
</svg>
