<svg width="16" height="16" viewBox="0 0 16 16" fill="none" xmlns="http://www.w3.org/2000/svg">
<g id="delete" clip-path="url(#clip0_445_1290)">
<path id="Vector" d="M13.9997 2.66667H11.933C11.7783 1.91428 11.3689 1.23823 10.7738 0.752479C10.1788 0.266727 9.43448 0.000969683 8.66634 0L7.33301 0C6.56487 0.000969683 5.82055 0.266727 5.22551 0.752479C4.63046 1.23823 4.22107 1.91428 4.06634 2.66667H1.99967C1.82286 2.66667 1.65329 2.7369 1.52827 2.86193C1.40325 2.98695 1.33301 3.15652 1.33301 3.33333C1.33301 3.51014 1.40325 3.67971 1.52827 3.80474C1.65329 3.92976 1.82286 4 1.99967 4H2.66634V12.6667C2.6674 13.5504 3.01893 14.3976 3.64382 15.0225C4.26871 15.6474 5.11594 15.9989 5.99967 16H9.99967C10.8834 15.9989 11.7306 15.6474 12.3555 15.0225C12.9804 14.3976 13.3319 13.5504 13.333 12.6667V4H13.9997C14.1765 4 14.3461 3.92976 14.4711 3.80474C14.5961 3.67971 14.6663 3.51014 14.6663 3.33333C14.6663 3.15652 14.5961 2.98695 14.4711 2.86193C14.3461 2.7369 14.1765 2.66667 13.9997 2.66667ZM7.33301 1.33333H8.66634C9.07986 1.33384 9.48309 1.46225 9.82075 1.70096C10.1584 1.93967 10.414 2.27699 10.5523 2.66667H5.44701C5.5854 2.27699 5.84094 1.93967 6.1786 1.70096C6.51626 1.46225 6.91949 1.33384 7.33301 1.33333ZM11.9997 12.6667C11.9997 13.1971 11.789 13.7058 11.4139 14.0809C11.0388 14.456 10.5301 14.6667 9.99967 14.6667H5.99967C5.46924 14.6667 4.96053 14.456 4.58546 14.0809C4.21039 13.7058 3.99967 13.1971 3.99967 12.6667V4H11.9997V12.6667Z" fill="#FF7CA3"/>
<path id="Vector_2" d="M6.66667 12.0001C6.84348 12.0001 7.01305 11.9298 7.13807 11.8048C7.2631 11.6798 7.33333 11.5102 7.33333 11.3334V7.33341C7.33333 7.1566 7.2631 6.98703 7.13807 6.86201C7.01305 6.73699 6.84348 6.66675 6.66667 6.66675C6.48986 6.66675 6.32029 6.73699 6.19526 6.86201C6.07024 6.98703 6 7.1566 6 7.33341V11.3334C6 11.5102 6.07024 11.6798 6.19526 11.8048C6.32029 11.9298 6.48986 12.0001 6.66667 12.0001Z" fill="#FF7CA3"/>
<path id="Vector_3" d="M9.33366 12.0001C9.51047 12.0001 9.68004 11.9298 9.80506 11.8048C9.93009 11.6798 10.0003 11.5102 10.0003 11.3334V7.33341C10.0003 7.1566 9.93009 6.98703 9.80506 6.86201C9.68004 6.73699 9.51047 6.66675 9.33366 6.66675C9.15685 6.66675 8.98728 6.73699 8.86225 6.86201C8.73723 6.98703 8.66699 7.1566 8.66699 7.33341V11.3334C8.66699 11.5102 8.73723 11.6798 8.86225 11.8048C8.98728 11.9298 9.15685 12.0001 9.33366 12.0001Z" fill="#FF7CA3"/>
</g>
<defs>
<clipPath id="clip0_445_1290">
<rect width="16" height="16" fill="white"/>
</clipPath>
</defs>
</svg>
