<svg width="25" height="24" viewBox="0 0 25 24" fill="none" xmlns="http://www.w3.org/2000/svg">
<g id="filter" clip-path="url(#clip0_11_3557)">
<path id="Vector" d="M23.9656 22.293L17.9966 16.324C19.6232 14.3346 20.423 11.7961 20.2304 9.23359C20.0379 6.67106 18.8678 4.28056 16.9622 2.55655C15.0565 0.832537 12.5612 -0.0930816 9.99221 -0.0288498C7.42326 0.035382 4.97727 1.08455 3.16018 2.90164C1.34309 4.71873 0.293927 7.16472 0.229695 9.73367C0.165463 12.3026 1.09108 14.798 2.81509 16.7036C4.5391 18.6092 6.9296 19.7793 9.49213 19.9719C12.0547 20.1644 14.5932 19.3647 16.5826 17.738L22.5516 23.707C22.7402 23.8892 22.9928 23.99 23.255 23.9877C23.5172 23.9854 23.768 23.8803 23.9534 23.6948C24.1388 23.5094 24.244 23.2586 24.2463 22.9964C24.2485 22.7342 24.1477 22.4816 23.9656 22.293ZM10.2586 18C8.67632 18 7.1296 17.5308 5.81401 16.6518C4.49842 15.7727 3.47304 14.5233 2.86753 13.0615C2.26203 11.5997 2.10361 9.99115 2.41229 8.4393C2.72097 6.88746 3.4829 5.46199 4.60172 4.34317C5.72054 3.22435 7.146 2.46243 8.69785 2.15374C10.2497 1.84506 11.8582 2.00349 13.32 2.60899C14.7818 3.21449 16.0313 4.23987 16.9103 5.55546C17.7894 6.87106 18.2586 8.41778 18.2586 10C18.2562 12.121 17.4126 14.1545 15.9128 15.6543C14.413 17.154 12.3796 17.9976 10.2586 18Z" fill="white"/>
</g>
<defs>
<clipPath id="clip0_11_3557">
<rect width="24" height="24" fill="white" transform="translate(0.258789)"/>
</clipPath>
</defs>
</svg>
