<svg width="30" height="32" viewBox="0 0 30 32" fill="none" xmlns="http://www.w3.org/2000/svg">
<g id="Group">
<g id="Group_2">
<path id="Vector" d="M28.1562 23.75C27.6385 23.75 27.2188 23.3302 27.2188 22.8125V17.5075C27.2188 15.9526 25.9537 14.6875 24.3988 14.6875H22.8394C22.3216 14.6875 21.9019 14.2678 21.9019 13.75C21.9019 13.2322 22.3216 12.8125 22.8394 12.8125H24.3988C26.9876 12.8125 29.0938 14.9186 29.0938 17.5075V22.8125C29.0938 23.3302 28.674 23.75 28.1562 23.75Z" fill="#596C76"/>
</g>
<path id="Vector_2" d="M14.6562 0.871872L16.4781 6.95862L14.6562 12.8125H10.2225C9.85 12.8125 9.5125 12.5919 9.36312 12.25L6.4525 5.58187L14.6562 0.871872Z" fill="#FFDD99"/>
<path id="Vector_3" d="M22.86 5.5825L19.9494 12.25C19.8 12.5919 19.4625 12.8125 19.09 12.8125H14.6562V0.871872L22.86 5.5825Z" fill="#FFCC66"/>
<path id="Vector_4" d="M14.6563 0L16.4781 2.53425L14.6563 3.4375C13.5744 3.4375 12.4238 3.66875 11.405 3.96L6.4525 5.58187L5.54688 3.50688C5.34938 3.055 5.53625 2.52688 5.97438 2.3C6.155 2.20563 10.4538 0 14.6563 0Z" fill="#FFCC66"/>
<path id="Vector_5" d="M23.7656 3.50688L22.86 5.5825L17.9069 3.96125C16.8869 3.66937 15.7356 3.4375 14.6562 3.4375V0C18.8587 0 23.1569 2.20563 23.3381 2.3C23.7762 2.52688 23.9631 3.055 23.7656 3.50688Z" fill="#E6A82E"/>
<g id="Group_3">
<path id="Vector_6" d="M7.65063 11.98L6.74188 20.0462C6.695 20.46 6.38125 20.7931 5.97063 20.865C5.91688 20.8744 5.86313 20.8787 5.80938 20.8787C5.45688 20.8787 5.12813 20.6794 4.96875 20.355L1.0025 12.2887C0.859375 11.9981 0.876875 11.6544 1.04813 11.3794C1.21875 11.1044 1.52 10.9375 1.84375 10.9375H5.91688L7.65063 11.98Z" fill="#CCDDFF"/>
</g>
<g id="Group_4">
<path id="Vector_7" d="M14.6562 10.9375L18.9882 18.4959L14.6562 32H4.84375C4.57937 32 4.32687 31.8881 4.14937 31.6925C3.97187 31.4962 3.885 31.2344 3.91062 30.9713L5.91687 10.9375H14.6562Z" fill="#E6EEFF"/>
</g>
<path id="Vector_8" d="M25.1631 31.6925C24.9856 31.8881 24.7331 32 24.4688 32H14.6562V10.9375H22.5938C23.0763 10.9375 23.48 11.3037 23.5269 11.7837L25.4019 30.9713C25.4275 31.2344 25.3406 31.4962 25.1631 31.6925Z" fill="#CCDDFF"/>
<g id="Group_5">
<path id="Vector_9" d="M14.6563 24.5981L16.4478 26.8272L14.6563 30.125H5.8775L6.48938 23.8613C8.49425 23.236 10.6256 23.276 12.5919 24.0269C13.2675 24.3138 13.9613 24.5044 14.6563 24.5981Z" fill="#8C4D4D"/>
</g>
<g id="Group_6">
<path id="Vector_10" d="M14.6563 15.3038L15.8159 19.3886L14.6563 21.6881C13.9425 21.6881 13.2288 21.405 12.7556 20.84C12.2831 20.3094 12.0881 19.5988 12.1781 18.89C12.2413 18.3644 12.4494 17.7981 12.7969 17.2063C13.3475 16.2675 14.0788 15.555 14.11 15.525C14.2625 15.3775 14.4594 15.3038 14.6563 15.3038Z" fill="#8C4D4D"/>
</g>
<g id="Group_7">
<path id="Vector_11" d="M16.5569 20.84C16.0838 21.405 15.37 21.6881 14.6562 21.6881V15.3038C14.8531 15.3038 15.05 15.3775 15.2025 15.525C15.2337 15.555 15.965 16.2675 16.5163 17.2063C16.8631 17.7981 17.0712 18.3644 17.1344 18.89C17.2237 19.6325 17.0244 20.3069 16.5569 20.84Z" fill="#733333"/>
<path id="Vector_12" d="M23.435 30.125H14.6562V24.5981C15.905 24.7669 17.1581 24.6231 18.3162 24.1644C19.7575 23.6038 21.2863 23.4125 22.7969 23.5981L23.435 30.125Z" fill="#733333"/>
</g>
</g>
</svg>
