<svg width="32" height="32" viewBox="0 0 32 32" fill="none" xmlns="http://www.w3.org/2000/svg">
<g id="Group">
<path id="Vector" fill-rule="evenodd" clip-rule="evenodd" d="M10.5993 0.173447H10.516C10.2673 0.173447 10.0656 0.375093 10.0656 0.623822V12.9502L14.0694 10.591V3.64358C14.0694 1.73497 12.5079 0.173447 10.5993 0.173447Z" fill="#FFD845"/>
<path id="Vector_2" fill-rule="evenodd" clip-rule="evenodd" d="M12.0675 0.50209V11.7705L14.0694 10.5909V3.64359C14.0694 2.25907 13.2473 1.05776 12.0675 0.50209Z" fill="#FFB454"/>
<g id="Group_2">
<g id="Group_3">
<path id="Vector_3" d="M29.1322 21.7835C28.9395 20.7025 28.331 19.7905 27.3189 19.068C27.207 18.9881 27.0663 18.9593 26.9322 18.9887C26.7979 19.0181 26.6822 19.103 26.6139 19.2223C25.3396 21.4478 25 21.7676 22.6239 21.7676C21.2822 21.7676 20.1907 22.8591 20.1907 24.2008C20.1907 25.5425 21.2822 26.6341 22.6239 26.6341H28.853C30.1947 26.6341 31.2863 25.5425 31.2863 24.2008C31.2863 22.9536 30.3429 21.9225 29.1322 21.7835Z" fill="#CE0050"/>
</g>
</g>
<path id="Vector_4" fill-rule="evenodd" clip-rule="evenodd" d="M9.46525 4.05281C9.79683 4.05281 10.0656 4.32161 10.0656 4.65319V20.0013H6.06183V7.45623C6.06183 5.58433 7.59334 4.05281 9.46525 4.05281Z" fill="#FFB454"/>
<path id="Vector_5" fill-rule="evenodd" clip-rule="evenodd" d="M5.52818 1.81589H5.61147C5.8602 1.81589 6.06184 2.01753 6.06184 2.26626V18.5652H2.05804V5.28603C2.05804 3.37742 3.61963 1.81589 5.52818 1.81589Z" fill="#FFD845"/>
<g id="Group_4">
<g id="Group_5">
<path id="Vector_6" fill-rule="evenodd" clip-rule="evenodd" d="M13.4691 9.66599C13.8006 9.66599 14.0694 9.93478 14.0694 10.2664V30.1522H10.0656V13.0694C10.0656 11.1975 11.5972 9.66599 13.4691 9.66599Z" fill="#FFF17D"/>
</g>
</g>
<path id="Vector_7" fill-rule="evenodd" clip-rule="evenodd" d="M13.4691 9.66591C12.97 9.66591 12.4957 9.77564 12.0675 9.97079V30.1521H14.0694V10.2663C14.0694 9.93477 13.8006 9.66591 13.4691 9.66591Z" fill="#FFD845"/>
<g id="Group_6">
<path id="Vector_8" d="M31.5133 25.6609H19.9635C19.6948 25.6609 19.4769 25.8788 19.4769 26.1475V28.6131C19.4769 30.3841 20.9177 31.825 22.6888 31.825H28.7881C30.5591 31.825 32 30.3841 32 28.6131V26.1475C32 25.8787 31.7821 25.6609 31.5133 25.6609Z" fill="#E2DFF4"/>
</g>
<path id="Vector_9" fill-rule="evenodd" clip-rule="evenodd" d="M14.4697 5.8864C14.2486 5.8864 14.0695 6.0656 14.0695 6.28657V21.8349H18.0733V9.49003C18.0732 7.50801 16.4516 5.8864 14.4697 5.8864Z" fill="#FF936B"/>
<path id="Vector_10" fill-rule="evenodd" clip-rule="evenodd" d="M21.6102 2.21623C19.6648 2.21623 18.0732 3.80784 18.0732 5.75315V18.9655H22.077V2.68318C22.077 2.42532 21.868 2.21623 21.6102 2.21623Z" fill="#FFB454"/>
<path id="Vector_11" d="M23.9059 11.9542C23.7278 11.7487 23.4692 11.6307 23.1973 11.6307H17.6949C17.1769 11.6307 16.757 12.0506 16.757 12.5686V12.6936C16.757 15.2794 14.6533 17.383 12.0675 17.383C9.48177 17.383 7.37808 15.2793 7.37808 12.6936V12.5686C7.37808 12.0506 6.95815 11.6307 6.44018 11.6307H0.937884C0.665958 11.6307 0.407413 11.7487 0.229276 11.9542C0.0511387 12.1596 -0.0290198 12.4323 0.00949625 12.7016L2.63384 31.0217C2.70006 31.4836 3.09566 31.8266 3.56229 31.8266H20.5707C21.0372 31.8266 21.4328 31.4837 21.499 31.0218L24.1256 12.7017C24.1642 12.4324 24.084 12.1597 23.9059 11.9542Z" fill="#6BA7FD"/>
<path id="Vector_12" d="M23.9059 11.9542C23.7278 11.7487 23.4692 11.6307 23.1972 11.6307H17.6949C17.1769 11.6307 16.757 12.0506 16.757 12.5686V12.6936C16.757 15.2794 14.6534 17.383 12.0676 17.3831V31.8266H20.5707C21.0372 31.8266 21.4328 31.4837 21.499 31.0218L24.1256 12.7017C24.1642 12.4324 24.084 12.1597 23.9059 11.9542Z" fill="#0082FF"/>
<path id="Vector_13" d="M14.9578 22.6371C14.1687 22.1923 13.1423 21.9474 12.0675 21.9474C10.9928 21.9474 9.96634 22.1923 9.17726 22.6371C8.23256 23.1696 7.6907 23.9665 7.6907 24.8236C7.6907 25.6807 8.23256 26.4777 9.17726 27.0102C9.96634 27.4549 10.9928 27.6998 12.0675 27.6998C13.1423 27.6998 14.1687 27.4549 14.9578 27.0102C15.9026 26.4777 16.4444 25.6807 16.4444 24.8236C16.4444 23.9665 15.9026 23.1696 14.9578 22.6371Z" fill="#F9F9F9"/>
<path id="Vector_14" d="M14.9578 22.6371C14.1687 22.1923 13.1423 21.9474 12.0675 21.9474V27.6998C13.1423 27.6998 14.1687 27.4549 14.9578 27.0102C15.9026 26.4777 16.4444 25.6807 16.4444 24.8236C16.4444 23.9665 15.9026 23.1696 14.9578 22.6371Z" fill="#E2DFF4"/>
</g>
</svg>
