<svg width="48" height="48" viewBox="0 0 48 48" fill="none" xmlns="http://www.w3.org/2000/svg">
<g id="Group">
<g id="Group_2">
<g id="Group_3">
<g id="Group_4">
<path id="Vector" d="M34.0117 47.6718C33.8083 47.6718 33.6053 47.6277 33.4173 47.5401C33.0794 47.3824 32.8177 47.0969 32.6902 46.7465L21.9153 17.1423C21.6497 16.4126 22.0259 15.6056 22.7557 15.3399L35.3374 10.7605C35.6881 10.6331 36.0747 10.6499 36.4128 10.8074C36.7507 10.9651 37.0124 11.2506 37.1399 11.601L47.9149 41.2051C48.0425 41.5556 48.0257 41.9423 47.8681 42.2804C47.7105 42.6183 47.425 42.8799 47.0746 43.0076L34.4928 47.587C34.337 47.6436 34.1742 47.6718 34.0117 47.6718Z" fill="#A3EFFF"/>
</g>
<path id="Vector_2" d="M36.4131 10.8075C36.0751 10.65 35.6884 10.633 35.3378 10.7605L29.0469 13.0502L40.7839 45.2973L47.0748 43.0076C47.4253 42.88 47.7107 42.6185 47.8683 42.2805C48.0259 41.9424 48.0428 41.5557 47.9152 41.2053L37.1402 11.6011C37.0126 11.2506 36.7511 10.9652 36.4131 10.8075Z" fill="#6AD9EB"/>
</g>
<g id="Group_5">
<g id="Group_6">
<path id="Vector_3" d="M34.9459 23.1095C34.2538 23.1096 33.6508 22.5986 33.5545 21.8937L31.5491 7.23829C31.4979 6.86394 31.5995 6.48472 31.831 6.18604C32.0626 5.88744 32.4045 5.69451 32.7799 5.65082L42.9379 4.46901C43.709 4.37938 44.4075 4.93176 44.4972 5.70332C44.587 6.47479 44.0344 7.17294 43.2629 7.26266L34.5302 8.27872L36.341 21.5125C36.4463 22.2819 35.9079 22.991 35.1384 23.0964C35.0738 23.1052 35.0094 23.1095 34.9459 23.1095Z" fill="#006D78"/>
</g>
<path id="Vector_4" d="M35.1379 23.0963C35.9073 22.991 36.4458 22.2818 36.3405 21.5124L34.8915 10.9226L32.1875 11.9068L33.554 21.8936C33.6504 22.5984 34.2534 23.1095 34.9454 23.1095C35.0089 23.1095 35.0733 23.1052 35.1379 23.0963Z" fill="#00A2B2"/>
</g>
<g id="Group_7">
<path id="Vector_5" d="M32.6903 46.7465C32.8178 47.0969 33.0794 47.3824 33.4174 47.5401C33.6053 47.6277 33.8083 47.6718 34.0118 47.6718C34.1743 47.6718 34.3371 47.6436 34.4927 47.587L47.0745 43.0076C47.425 42.88 47.7104 42.6185 47.868 42.2804C48.0256 41.9424 48.0425 41.5557 47.9149 41.2052L40.3049 20.2969H23.0635L32.6903 46.7465Z" fill="#E48BFC"/>
<path id="Vector_6" d="M31.6846 20.2969L40.7839 45.2973L47.0749 43.0076C47.4253 42.88 47.7108 42.6185 47.8683 42.2805C48.0259 41.9424 48.0428 41.5557 47.9152 41.2053L40.3053 20.297L31.6846 20.2969Z" fill="#735191"/>
</g>
</g>
<g id="Group_8" opacity="0.99">
<g id="Group_9">
<path id="Vector_7" d="M13.9879 43.5406C13.8254 43.5406 13.6626 43.5124 13.5069 43.4559L0.925218 38.8765C0.574781 38.7489 0.289312 38.4873 0.131718 38.1492C-0.0258756 37.8113 -0.0427506 37.4246 0.0848431 37.074L10.8597 7.46993C10.9872 7.11949 11.2488 6.83402 11.5868 6.67633C11.9248 6.51874 12.3116 6.50205 12.6622 6.62937L25.2439 11.2088C25.9737 11.4745 26.3499 12.2814 26.0843 13.0112L15.3094 42.6153C15.1819 42.9657 14.9203 43.2512 14.5822 43.4089C14.3944 43.4965 14.1914 43.5406 13.9879 43.5406Z" fill="#A3EFFF"/>
<path id="Vector_8" d="M25.2437 11.2088L18.9529 8.91919L7.21582 41.1662L13.5067 43.4558C13.6624 43.5125 13.8251 43.5407 13.9877 43.5406C14.1911 43.5406 14.3941 43.4965 14.582 43.4089C14.92 43.2513 15.1817 42.9657 15.3092 42.6153L26.0841 13.0112C26.3498 12.2814 25.9735 11.4745 25.2437 11.2088Z" fill="#6AD9EB"/>
</g>
<g id="Group_10">
<g id="Group_11">
<path id="Vector_9" d="M13.4597 18.069C13.3963 18.069 13.3319 18.0647 13.2673 18.0558C12.4978 17.9505 11.9594 17.2415 12.0646 16.4719L13.7509 4.14751L5.01829 3.13154C4.24682 3.04182 3.69417 2.34366 3.78398 1.57219C3.8737 0.80082 4.57261 0.248351 5.34332 0.337882L15.5013 1.51979C15.8767 1.56348 16.2186 1.75641 16.4502 2.05501C16.6817 2.35369 16.7833 2.73282 16.7321 3.10726L14.8512 16.8533C14.7548 17.5581 14.1518 18.069 13.4597 18.069Z" fill="#735191"/>
</g>
<path id="Vector_10" d="M14.8514 16.8532L16.0801 7.87325L13.3761 6.88916L12.0649 16.4719C11.9596 17.2414 12.498 17.9504 13.2675 18.0558C13.3322 18.0647 13.3965 18.069 13.46 18.069C14.152 18.0689 14.755 17.558 14.8514 16.8532Z" fill="#E48BFC"/>
</g>
<g id="Group_12">
<path id="Vector_11" d="M8.02584 15.2563L0.0848431 37.074C-0.0427506 37.4245 -0.0258756 37.8112 0.131718 38.1493C0.289312 38.4872 0.574781 38.7489 0.925218 38.8765L13.507 43.4559C13.6627 43.5124 13.8254 43.5406 13.988 43.5406C14.1914 43.5406 14.3944 43.4965 14.5823 43.4089C14.9203 43.2512 15.182 42.9657 15.3095 42.6153L25.2673 15.2563H8.02584Z" fill="#FFCF2C"/>
<path id="Vector_12" d="M16.6462 15.2563L7.21582 41.1662L13.5067 43.4559C13.6624 43.5125 13.8251 43.5407 13.9877 43.5406C14.1911 43.5406 14.3941 43.4966 14.582 43.4089C14.92 43.2513 15.1817 42.9658 15.3092 42.6153L25.267 15.2563H16.6462Z" fill="#FFA81C"/>
</g>
</g>
</g>
</svg>
