<svg width="32" height="32" viewBox="0 0 32 32" fill="none" xmlns="http://www.w3.org/2000/svg">
<g id="ice-cream-cone" clip-path="url(#clip0_26_985)">
<path id="Vector" d="M3.43532 32C2.54313 32 1.65907 31.6558 1.00163 30.9983C-0.0723088 29.9244 -0.310496 28.2453 0.422504 26.9149L10.0748 9.39794C10.1173 9.32075 10.1706 9.24987 10.2329 9.1875L14.2378 5.18269C14.5917 4.82862 15.1613 4.81525 15.5316 5.15219L27.3166 15.8747C27.5062 16.0472 27.6169 16.2898 27.6229 16.5461C27.629 16.8023 27.5299 17.0499 27.3486 17.2311L22.8126 21.7671C22.7502 21.8295 22.6794 21.8827 22.6021 21.9253L5.08507 31.5774C4.56913 31.8618 4.00057 32 3.43532 32Z" fill="#FFF550"/>
<path id="Vector_2" d="M22.6021 21.9252C22.6794 21.8826 22.7502 21.8294 22.8126 21.7671L27.3486 17.231C27.5299 17.0498 27.629 16.8022 27.6229 16.546C27.6169 16.2897 27.5062 16.0472 27.3166 15.8747L21.4569 10.5432L1.00168 30.9983C1.65912 31.6557 2.54318 32 3.4353 32C4.00049 32 4.56912 31.8617 5.08505 31.5774L22.6021 21.9252Z" fill="#FFDC14"/>
<path id="Vector_3" d="M19.3995 21.4392V18.8948H23.5045C24.0222 18.8948 24.442 18.4751 24.442 17.9573C24.442 17.4396 24.0222 17.0198 23.5045 17.0198H19.3995V14.3981C19.7319 14.254 19.9647 13.9232 19.9647 13.5379C19.9647 13.1526 19.732 12.8218 19.3995 12.6777V10.4728C19.3995 9.95506 18.9798 9.53531 18.462 9.53531C17.9443 9.53531 17.5245 9.95506 17.5245 10.4728V12.6004H14.9801V6.2455C14.9801 5.75012 14.5956 5.3455 14.109 5.31137L13.1051 6.31525V12.6004H10.5607V8.85962L10.2329 9.18737C10.1705 9.24975 10.1173 9.32062 10.0747 9.39781L8.68574 11.9187V12.6005H8.31011L7.27692 14.4755H8.68574V17.0199H6.1413V16.5364L4.2663 19.9392V21.4393H3.43967L2.40649 23.3143H4.26624V25.8587H1.00449L0.422487 26.9149C0.278237 27.1767 0.172174 27.4522 0.102112 27.7337H4.2663V31.8981C4.54786 31.8281 4.82324 31.7217 5.08505 31.5775L6.1413 30.9955V27.7337H8.68574V29.5934L10.5607 28.5602V27.7337H12.0608L15.4636 25.8587H14.9802V23.3142H17.5247V24.7231L19.3997 23.6899V23.3142H20.0812L22.6021 21.9252C22.6794 21.8826 22.7502 21.8294 22.8125 21.767L23.1403 21.4392H19.3995ZM8.68574 25.8587H6.1413V23.3142H8.68574V25.8587ZM8.68574 21.4392H6.1413V18.8949H8.68574V21.4392ZM10.5607 14.4754H13.1052V17.0198H10.5607V14.4754ZM10.5607 18.8949H13.1052V21.4392H10.5607V18.8949ZM10.5607 25.8587V23.3142H13.1052V25.8587H10.5607ZM17.5245 21.4392H14.9801V18.8949H17.5245V21.4392ZM17.5245 17.0199H14.9801V14.4755H17.5245V17.0199Z" fill="#FFDC14"/>
<path id="Vector_4" d="M17.5246 14.4754V17.0198H14.9801L13.1051 18.8948V21.4392H10.5607L8.6857 23.3142V25.8586H6.14133L4.26633 27.7336V31.898C4.54789 31.8279 4.82326 31.7216 5.08508 31.5774L6.14133 30.9954V27.7336H8.68576V29.5933L10.5608 28.5601V27.7336H12.0608L15.4636 25.8586H14.9803V23.3141H17.5247V24.7229L19.3997 23.6897V23.3141H20.0813L22.6021 21.9251C22.6794 21.8824 22.7503 21.8292 22.8126 21.7669L23.1403 21.4391H19.3996V18.8947H23.5045C24.0223 18.8947 24.442 18.4749 24.442 17.9572C24.442 17.4394 24.0223 17.0197 23.5045 17.0197H19.3996V14.398C19.732 14.2539 19.9647 13.9231 19.9647 13.5378C19.9647 13.1525 19.732 12.8217 19.3996 12.6776V12.6003L17.5246 14.4754ZM10.5608 25.8587V23.3142H13.1052V25.8587H10.5608ZM17.5246 21.4392H14.9801V18.8949H17.5246V21.4392Z" fill="#FDBE00"/>
<path id="Vector_5" d="M25.3049 23.7569C24.0529 23.7569 22.8757 23.2694 21.9904 22.384C21.2309 21.6246 20.7654 20.6458 20.6481 19.6015C19.6038 19.4842 18.625 19.0187 17.8656 18.2592C17.1061 17.4998 16.6406 16.521 16.5232 15.4767C15.4788 15.3594 14.5002 14.8939 13.7407 14.1343C12.9813 13.3749 12.5158 12.3961 12.3984 11.3518C11.3541 11.2346 10.3755 10.7691 9.61595 10.0095C8.73057 9.12413 8.24301 7.947 8.24301 6.69494C8.24301 5.44288 8.73057 4.26575 9.61595 3.38038C10.7246 2.27169 12.2988 1.79938 13.8181 2.09263C15.9583 0.591879 18.5553 -0.141371 21.1812 0.0225664C23.9874 0.197629 26.6291 1.39013 28.6194 3.38057C30.6098 5.371 31.8024 8.01257 31.9774 10.8189C32.1413 13.4451 31.4081 16.0417 29.9072 18.1819C30.2008 19.7016 29.7281 21.2754 28.6194 22.3841C27.7341 23.2694 26.557 23.7569 25.3049 23.7569Z" fill="#EAF1FF"/>
<path id="Vector_6" d="M16.5233 15.4768C16.6406 16.5211 17.1061 17.4998 17.8656 18.2593C18.6251 19.0188 19.6038 19.4843 20.6481 19.6016C20.7654 20.6459 21.2309 21.6246 21.9904 22.3841C22.8758 23.2695 24.0529 23.7571 25.305 23.7571C26.5571 23.7571 27.7342 23.2695 28.6196 22.3841C29.7283 21.2755 30.2009 19.7017 29.9073 18.1819C31.4082 16.0418 32.1413 13.4451 31.9776 10.8189C31.8025 8.01269 30.6099 5.37107 28.6196 3.38063L16.5233 15.4768Z" fill="#B1D5F1"/>
<path id="Vector_7" d="M25.7469 8.07449H23.9791C23.4614 8.07449 23.0416 7.65474 23.0416 7.13699C23.0416 6.61924 23.4614 6.19949 23.9791 6.19949H25.7469C26.2646 6.19949 26.6844 6.61924 26.6844 7.13699C26.6844 7.65474 26.2646 8.07449 25.7469 8.07449Z" fill="#FF6860"/>
<path id="Vector_8" d="M26.6307 14.2618C26.113 14.2618 25.6932 13.842 25.6932 13.3243V11.5565C25.6932 11.0388 26.113 10.619 26.6307 10.619C27.1485 10.619 27.5682 11.0388 27.5682 11.5565V13.3243C27.5682 13.842 27.1485 14.2618 26.6307 14.2618Z" fill="#965A1E"/>
<path id="Vector_9" d="M22.2113 12.4939H20.4436C19.9258 12.4939 19.5061 12.0742 19.5061 11.5564C19.5061 11.0387 19.9258 10.6189 20.4436 10.6189H22.2113C22.7291 10.6189 23.1488 11.0387 23.1488 11.5564C23.1488 12.0742 22.7291 12.4939 22.2113 12.4939Z" fill="#FF6860"/>
<path id="Vector_10" d="M23.9791 8.07449H25.7469C26.2646 8.07449 26.6844 7.65474 26.6844 7.13699C26.6844 6.63643 26.2918 6.22874 25.7979 6.20206L23.9281 8.07187C23.9451 8.07287 23.9619 8.07449 23.9791 8.07449Z" fill="#FF4436"/>
<path id="Vector_11" d="M20.4436 12.4939H22.2113C22.7291 12.4939 23.1488 12.0742 23.1488 11.5564C23.1488 11.0387 22.7291 10.6189 22.2113 10.6189H21.381L19.7806 12.2194C19.9503 12.389 20.1847 12.4939 20.4436 12.4939Z" fill="#FF4436"/>
<path id="Vector_12" d="M20.0016 7.63256C19.4839 7.63256 19.0641 7.21281 19.0641 6.69506V4.92731C19.0641 4.40956 19.4839 3.98981 20.0016 3.98981C20.5194 3.98981 20.9391 4.40956 20.9391 4.92731V6.69506C20.9391 7.21281 20.5194 7.63256 20.0016 7.63256Z" fill="#AF6C23"/>
</g>
<defs>
<clipPath id="clip0_26_985">
<rect width="32" height="32" fill="white"/>
</clipPath>
</defs>
</svg>
