<svg width="24" height="24" viewBox="0 0 24 24" fill="none" xmlns="http://www.w3.org/2000/svg">
<g id="icon">
<path id="Vector" d="M19.95 5.53598L16.465 2.05098C15.143 0.728977 13.385 0.000976897 11.515 0.000976897H7C4.243 -2.31033e-05 2 2.24298 2 4.99998V19C2 21.757 4.243 24 7 24H17C19.757 24 22 21.757 22 19V10.485C22 8.61498 21.272 6.85898 19.95 5.53598ZM18.536 6.94998C18.854 7.26798 19.123 7.62098 19.341 7.99998H15C14.449 7.99998 14 7.55098 14 6.99998V2.65898C14.379 2.87698 14.733 3.14598 15.05 3.46398L18.535 6.94898L18.536 6.94998ZM20 19C20 20.654 18.654 22 17 22H7C5.346 22 4 20.654 4 19V4.99998C4 3.34598 5.346 1.99998 7 1.99998H11.515C11.678 1.99998 11.84 2.00798 12 2.02298V6.99998C12 8.65398 13.346 9.99998 15 9.99998H19.977C19.992 10.16 20 10.322 20 10.485V19ZM15.5 13H8.5C7.122 13 6 14.122 6 15.5V17.5C6 18.878 7.122 20 8.5 20H15.5C16.878 20 18 18.878 18 17.5V15.5C18 14.122 16.878 13 15.5 13ZM16 17.5C16 17.776 15.776 18 15.5 18H8.5C8.224 18 8 17.776 8 17.5V15.5C8 15.224 8.224 15 8.5 15H15.5C15.776 15 16 15.224 16 15.5V17.5ZM6 9.99998C6 9.44798 6.448 8.99998 7 8.99998H9C9.552 8.99998 10 9.44798 10 9.99998C10 10.552 9.552 11 9 11H7C6.448 11 6 10.552 6 9.99998ZM6 5.99998C6 5.44798 6.448 4.99998 7 4.99998H9C9.552 4.99998 10 5.44798 10 5.99998C10 6.55198 9.552 6.99998 9 6.99998H7C6.448 6.99998 6 6.55198 6 5.99998Z" fill="white"/>
</g>
</svg>
