<svg width="32" height="30" viewBox="0 0 32 30" fill="none" xmlns="http://www.w3.org/2000/svg">
<g id="surface1">
<path id="Vector" d="M26.375 15.9375H5.625C3.5625 15.9375 1.875 17.625 1.875 19.6875C1.875 21.75 3.5625 23.4375 5.625 23.4375H26.375C28.4375 23.4375 30.125 21.75 30.125 19.6875C30.125 17.625 28.4375 15.9375 26.375 15.9375Z" fill="#FF6C6C"/>
<path id="Vector_2" d="M30.125 19.6875C30.125 21.75 28.4375 23.4375 26.375 23.4375H16V15.9375H26.375C28.4375 15.9375 30.125 17.625 30.125 19.6875Z" fill="#FF4949"/>
<path id="Vector_3" d="M32 22.5C32 26.1187 29.0562 29.0625 25.4375 29.0625H6.5625C2.94385 29.0625 0 26.1187 0 22.5C0 21.9749 0.412354 21.5625 0.9375 21.5625H31.0625C31.5876 21.5625 32 21.9749 32 22.5Z" fill="#FF9F00"/>
<path id="Vector_4" d="M32 22.5C32 26.1187 29.0562 29.0625 25.4375 29.0625H16V21.5625H31.0625C31.5876 21.5625 32 21.9749 32 22.5Z" fill="#FF7816"/>
<path id="Vector_5" d="M29.9375 12.5625C29.7688 12.3188 29.4876 12.1875 29.1875 12.1875H2.8125C2.51245 12.1875 2.2312 12.3188 2.0625 12.5625C1.40625 13.4436 -0.30615 16.4812 0.0500515 18.3186C0.143802 18.8625 0.425052 19.2749 0.875003 19.5562C2.3938 20.4937 2.9812 19.3125 3.5249 18.675C3.9751 18.1311 4.27515 17.8125 4.6875 17.8125C5.21265 17.8125 5.4375 18.0188 5.90625 18.4688C6.41236 18.9937 7.1687 19.6875 8.5 19.6875C9.8313 19.6875 10.5251 18.9937 11.0313 18.4688C11.5 18.0188 11.7249 17.8125 12.25 17.8125C12.7751 17.8125 13 18.0188 13.4688 18.4688C13.9749 18.9937 14.6687 19.6875 16 19.6875C17.3313 19.6875 18.0251 18.9937 18.5313 18.4688C19 18.0188 19.2249 17.8125 19.75 17.8125C20.2751 17.8125 20.5 18.0188 20.9688 18.4688C21.4749 18.9937 22.1687 19.6875 23.5 19.6875C24.8313 19.6875 25.5876 18.9937 26.0938 18.4688C26.5625 18.0188 26.7874 17.8125 27.3125 17.8125C27.7249 17.8125 28.0249 18.1311 28.4751 18.675C28.8689 19.1438 29.5249 19.8938 30.4438 19.8938C30.7813 19.8938 30.7124 19.8 31.125 19.5562C31.575 19.2749 31.8562 18.8625 31.95 18.3186C32.3062 16.4812 30.5938 13.4436 29.9375 12.5625Z" fill="#90E36A"/>
<path id="Vector_6" d="M31.95 18.3186C31.8562 18.8625 31.575 19.2749 31.125 19.5562C30.7124 19.8 30.7812 19.8938 30.4436 19.8938C29.5249 19.8938 28.8687 19.1438 28.4749 18.675C28.0249 18.1311 27.7249 17.8125 27.3125 17.8125C26.7874 17.8125 26.5625 18.0188 26.0938 18.4688C25.5876 18.9937 24.8313 19.6875 23.5 19.6875C22.1687 19.6875 21.4749 18.9937 20.9688 18.4688C20.5 18.0188 20.2751 17.8125 19.75 17.8125C19.2249 17.8125 19 18.0188 18.5312 18.4688C18.0251 18.9937 17.3313 19.6875 16 19.6875V12.1875H29.1875C29.4875 12.1875 29.7688 12.3188 29.9375 12.5625C30.5938 13.4436 32.3062 16.4812 31.95 18.3186Z" fill="#70DA40"/>
<path id="Vector_7" d="M19.75 0.9375H12.25C5.53735 0.9375 0 6.41235 0 13.125C0 13.6499 0.412354 14.0625 0.9375 14.0625H31.0625C31.5876 14.0625 32 13.6499 32 13.125C32 6.41235 26.4626 0.9375 19.75 0.9375Z" fill="#FF9F00"/>
<path id="Vector_8" d="M32 13.125C32 13.6499 31.5876 14.0625 31.0625 14.0625H16V0.9375H19.75C26.4626 0.9375 32 6.41235 32 13.125Z" fill="#FF7816"/>
<path id="Vector_9" d="M9.4375 21.5625L16 26.4937L19.1875 28.875C19.3562 29.0061 19.5437 29.0625 19.75 29.0625C19.9563 29.0625 20.1438 29.0061 20.3125 28.875L30.125 21.5625H9.4375Z" fill="#FFD400"/>
<path id="Vector_10" d="M16 21.5625H30.125L20.3125 28.875C20.1438 29.0061 19.9563 29.0625 19.75 29.0625C19.5437 29.0625 19.3562 29.0061 19.1875 28.875L16 26.4937V21.5625Z" fill="#FDBF00"/>
<path id="Vector_11" d="M13.1875 5.625C13.1875 6.14282 12.7678 6.5625 12.25 6.5625C11.7322 6.5625 11.3125 6.14282 11.3125 5.625C11.3125 5.10718 11.7322 4.6875 12.25 4.6875C12.7678 4.6875 13.1875 5.10718 13.1875 5.625Z" fill="#FFE470"/>
<path id="Vector_12" d="M22.5625 7.5C22.5625 8.01782 22.1428 8.4375 21.625 8.4375C21.1072 8.4375 20.6875 8.01782 20.6875 7.5C20.6875 6.98218 21.1072 6.5625 21.625 6.5625C22.1428 6.5625 22.5625 6.98218 22.5625 7.5Z" fill="#FFD400"/>
<path id="Vector_13" d="M9.4375 7.5C9.4375 8.01782 9.01782 8.4375 8.5 8.4375C7.98218 8.4375 7.5625 8.01782 7.5625 7.5C7.5625 6.98218 7.98218 6.5625 8.5 6.5625C9.01782 6.5625 9.4375 6.98218 9.4375 7.5Z" fill="#FFE470"/>
<path id="Vector_14" d="M18.8125 5.625C18.8125 6.14282 18.3928 6.5625 17.875 6.5625C17.3572 6.5625 16.9375 6.14282 16.9375 5.625C16.9375 5.10718 17.3572 4.6875 17.875 4.6875C18.3928 4.6875 18.8125 5.10718 18.8125 5.625Z" fill="#FFD400"/>
<path id="Vector_15" d="M16.9375 9.375C16.9375 9.8999 16.5251 10.3125 16 10.3125C15.4749 10.3125 15.0625 9.8999 15.0625 9.375C15.0625 8.84985 15.4749 8.4375 16 8.4375C16.5251 8.4375 16.9375 8.84985 16.9375 9.375Z" fill="#FFE470"/>
<path id="Vector_16" d="M16 10.3125V8.4375C16.5251 8.4375 16.9375 8.84985 16.9375 9.375C16.9375 9.8999 16.5251 10.3125 16 10.3125Z" fill="#FFD400"/>
</g>
</svg>
