<svg width="48" height="48" viewBox="0 0 48 48" fill="none" xmlns="http://www.w3.org/2000/svg">
<g id="tea-cup" clip-path="url(#clip0_231_897)">
<path id="Vector" d="M40.1741 35.4782H35.1951C34.331 35.4782 33.6299 34.7776 33.6299 33.913C33.6299 33.0483 34.331 32.3477 35.1951 32.3477H40.1741C42.7634 32.3477 44.8698 30.2414 44.8698 27.6521C44.8698 25.0628 42.7634 22.9564 40.1741 22.9564H39.1307C38.2666 22.9564 37.5654 22.2558 37.5654 21.3912C37.5654 20.5265 38.2666 19.8259 39.1307 19.8259H40.1741C44.4896 19.8259 48.0002 23.3365 48.0002 27.652C48.0002 31.9675 44.4896 35.4782 40.1741 35.4782Z" fill="#F28618"/>
<path id="Vector_2" d="M21.9135 41.7391C11.5572 41.7391 3.13086 33.3133 3.13086 22.9565V18.2608C3.13086 17.3962 3.83202 16.6956 4.69611 16.6956H39.1309C39.995 16.6956 40.6961 17.3962 40.6961 18.2608V22.9565C40.6961 33.3134 32.2698 41.7391 21.9135 41.7391Z" fill="#FFC033"/>
<path id="Vector_3" d="M39.1305 16.6956H21.9131V41.739C32.2694 41.739 40.6957 33.3132 40.6957 22.9564V18.2607C40.6957 17.3962 39.9946 16.6956 39.1305 16.6956Z" fill="#F9A926"/>
<path id="Vector_4" d="M12.5218 12.5216C12.1213 12.5216 11.7208 12.3687 11.4151 12.063C10.8038 11.4517 10.8038 10.4602 11.4151 9.84919L12.2426 9.02222C12.4188 8.8455 12.5013 8.59059 12.4617 8.34253C12.4209 8.09644 12.263 7.88137 12.0388 7.76934L11.6047 7.55231C10.4837 6.9914 9.6939 5.91787 9.49215 4.68037C9.29246 3.44128 9.70102 2.17312 10.5866 1.28653L11.415 0.458154C12.0263 -0.152252 13.0169 -0.152721 13.6283 0.458717C14.2397 1.07015 14.2396 2.06156 13.6283 2.67253L12.8009 3.4995C12.6246 3.67622 12.5421 3.93112 12.5818 4.17919C12.6226 4.42528 12.7804 4.64034 13.0047 4.75237L13.4387 4.9694C14.5596 5.5304 15.3495 6.60394 15.5511 7.84144C15.7508 9.08053 15.3422 10.3487 14.4567 11.2353L13.6283 12.0637C13.3228 12.3689 12.9223 12.5216 12.5218 12.5216Z" fill="#FFE0B2"/>
<path id="Vector_5" d="M31.3048 12.5217C30.9043 12.5217 30.5038 12.3688 30.1982 12.0631C29.5868 11.4517 29.5868 10.4602 30.1982 9.84928L31.0256 9.02231C31.2019 8.84559 31.2844 8.59069 31.2447 8.34262C31.2039 8.09653 31.046 7.88147 30.8218 7.76944L30.3877 7.5524C29.2669 6.9914 28.477 5.91787 28.2754 4.68037C28.0757 3.44128 28.4842 2.17312 29.3698 1.28653L30.1982 0.458154C30.8095 -0.152252 31.8001 -0.152721 32.4115 0.458717C33.0229 1.07015 33.0229 2.06156 32.4115 2.67253L31.5841 3.4995C31.4078 3.67622 31.3253 3.93112 31.365 4.17919C31.4058 4.42528 31.5636 4.64034 31.7879 4.75237L32.2219 4.9694C33.3428 5.5304 34.1327 6.60394 34.3343 7.84144C34.534 9.08053 34.1254 10.3487 33.2399 11.2353L32.4115 12.0637C32.1058 12.369 31.7053 12.5217 31.3048 12.5217Z" fill="#FDCD99"/>
<path id="Vector_6" d="M21.9132 12.5217C21.5127 12.5217 21.1122 12.3688 20.8066 12.0631C20.1952 11.4517 20.1952 10.4602 20.8066 9.84928L21.634 9.02231C21.8102 8.84559 21.8927 8.59069 21.8531 8.34262C21.8123 8.09653 21.6544 7.88147 21.4302 7.76944L20.9961 7.5524C19.8752 6.9914 19.0854 5.91787 18.8837 4.68037C18.6841 3.44128 19.0926 2.17312 19.9782 1.28653L20.8066 0.458154C21.4179 -0.152252 22.4085 -0.152721 23.0199 0.458717C23.6312 1.07006 23.6312 2.06156 23.0199 2.67253L22.1925 3.4995C22.0162 3.67622 21.9337 3.93112 21.9734 4.17919C22.0142 4.42528 22.172 4.64034 22.3963 4.75237L22.8303 4.9694C23.9512 5.5304 24.7411 6.60394 24.9427 7.84144C25.1424 9.08053 24.7338 10.3487 23.8483 11.2353L23.0199 12.0637C22.7142 12.369 22.3137 12.5217 21.9132 12.5217Z" fill="#FFE0B2"/>
<path id="Vector_7" d="M23.0197 12.0636L23.8481 11.2352C24.7336 10.3487 25.1422 9.08059 24.9425 7.8414C24.7407 6.60381 23.951 5.53028 22.8301 4.96937L22.3961 4.75234C22.1719 4.64031 22.014 4.42524 21.9732 4.17915C21.9334 3.93099 22.0159 3.67628 22.1923 3.49946L23.0197 2.67249C23.6311 2.06162 23.6311 1.07012 23.0197 0.458682C22.714 0.152963 22.3135 0.000244141 21.9131 0.000244141V12.5219C22.3136 12.5216 22.7141 12.3689 23.0197 12.0636Z" fill="#FDCD99"/>
<path id="Vector_8" d="M36 48H7.82606C3.51056 48 0 44.4894 0 40.1739C0 39.3092 0.701156 38.6086 1.56525 38.6086H42.2609C43.125 38.6086 43.8262 39.3092 43.8262 40.1739C43.8261 44.4895 40.3155 48 36 48Z" fill="#A6673A"/>
<path id="Vector_9" d="M42.261 38.6086H21.9131V48H36.0001C40.3156 48 43.8261 44.4894 43.8261 40.1739C43.8261 39.3092 43.1251 38.6086 42.261 38.6086Z" fill="#99522E"/>
<path id="Vector_10" d="M15.6523 16.6956V24.5216C15.6523 25.3863 16.3535 26.0869 17.2176 26.0869C18.0817 26.0869 18.7828 25.3863 18.7828 24.5216V16.6956H15.6523Z" fill="#736056"/>
<path id="Vector_11" d="M17.2171 32.3479C14.6279 32.3479 12.5215 30.2415 12.5215 27.6522V24.5218C12.5215 23.6571 13.2226 22.9565 14.0867 22.9565H20.3476C21.2117 22.9565 21.9129 23.6571 21.9129 24.5218V27.6522C21.9128 30.2416 19.8064 32.3479 17.2171 32.3479Z" fill="#A6673A"/>
</g>
<defs>
<clipPath id="clip0_231_897">
<rect width="48" height="48" fill="white"/>
</clipPath>
</defs>
</svg>
